# xmcd CD database file
# Copyright (C) 1996 Ti Kan
#
# Track frame offsets:
#  150
#  10730
#  22967
#  36752
#  46075
#  60192
#  71715
#  83792
#  94987
#  105040
#  117832
#  128225
#  138842
#  150990
#
# Disc length: 2195 seconds
#
# Revision: 2
# Processed by: cddbd v1.4b41PL1 Copyright (c) Steve Scherf et al.
# Submitted via: CDWizzard Release:4.10
#
DISCID=9b08910e
DTITLE=Johnny Winter - Ease My Pain
DYEAR=1900
DGENRE=
TTITLE0=That's What Love Does
TTITLE1=Leave My Wife Alone
TTITLE2=Five After Four A.M.
TTITLE3=Road Runner
TTITLE4=Ease My Pain
TTITLE5=The Guy Left You Behind
TTITLE6=Kiss Tommorrow Goodbye
TTITLE7=I Can't Believe You Want To Leave
TTITLE8=By The Light Of The Silvery Moon
TTITLE9=Easy Lovin' Girl
TTITLE10=Shed So many Tears
TTITLE11=Creepy
TTITLE12=Please Come Home For Christman
TTITLE13=Harlem Nocturnce
EXTD=All Tracks Recorded 1960-1967
EXTT0=
EXTT1=
EXTT2=
EXTT3=
EXTT4=
EXTT5=
EXTT6=
EXTT7=
EXTT8=
EXTT9=
EXTT10=
EXTT11=
EXTT12=
EXTT13=
PLAYORDER=
